<?xml version="1.0" encoding="utf-8"?>
<!-- Generator: Adobe Illustrator 24.0.0, SVG Export Plug-In . SVG Version: 6.00 Build 0)  -->
<svg version="1.1" id="Layer_1" xmlns="http://www.w3.org/2000/svg" xmlns:xlink="http://www.w3.org/1999/xlink" x="0px" y="0px"
	 viewBox="0 0 150 150" style="enable-background:new 0 0 150 150;" xml:space="preserve">
<style type="text/css">
	.st0{fill:#3FA9F5;}
	.st1{filter:url(#Adobe_OpacityMaskFilter);}
	.st2{opacity:0.68;mask:url(#SVGID_1_);}
</style>
<g>
	<path class="st0" d="M57.9,63.5C54.4,68.3,51,73,47.5,77.7c-0.9,1.2-2,2.3-3.6,4.2c-1.9-7.4-3.3-13.7-5.1-19.8
		c-3.7-13-12.2-21-26.6-23.8c5.2,17.9,10.2,35.1,15.3,52.2c1,3.5,2,7,3.2,10.5c1.5,4.3,4.8,6.8,9.2,7.6c6.1,1.1,10.1-2.6,13.4-6.9
		c4-5.1,7.6-10.5,11.5-15.7c3.6-4.9,7.3-9.7,11.3-15.1C76.2,70.8,66,56.9,57.9,63.5z"/>
	<path class="st0" d="M126.5,43.5c-9.7,5.8-12.8,15.7-15.1,25.9c-0.9,3.9-2,7.8-3.2,12.7c-1.8-2.2-2.9-3.5-3.8-4.8
		C99.1,70.2,94,63,88.8,55.9c-8.2-11-17.2-11-25.4,0.1c-1.9,2.5-3.7,5.1-5.5,7.6c8.1-6.6,18.3,7.3,18.3,7.3
		c3.3,4.4,5.9,7.9,8.6,11.5c5.4,7.2,10.3,14.8,16.2,21.5c7.6,8.5,17.7,5.9,21.1-4.9c1.9-6.2,3.8-12.4,5.6-18.6
		c4-13.8,8.1-27.6,12.6-43.1C134.8,39.7,130.4,41.1,126.5,43.5z"/>
	<defs>
		<filter id="Adobe_OpacityMaskFilter" filterUnits="userSpaceOnUse" x="15.3" y="4.6" width="110" height="108">
			
				<feColorMatrix  type="matrix" values="-1 0 0 0 1  0 -1 0 0 1  0 0 -1 0 1  0 0 0 1 0" color-interpolation-filters="sRGB" result="source"/>
		</filter>
	</defs>
	<mask maskUnits="userSpaceOnUse" x="15.3" y="4.6" width="110" height="108" id="SVGID_1_">
		<g class="st1">
			<path class="st0" d="M57.9,63.5C54.4,68.3,51,73,47.5,77.7c-0.9,1.2-2,2.3-3.6,4.2c-1.9-7.4-3.3-13.7-5.1-19.8
				c-3.7-13-12.2-21-26.6-23.8c5.2,17.9,10.2,35.1,15.3,52.2c1,3.5,2,7,3.2,10.5c1.5,4.3,4.8,6.8,9.2,7.6c6.1,1.1,10.1-2.6,13.4-6.9
				c4-5.1,7.6-10.5,11.5-15.7c3.6-4.9,7.3-9.7,11.3-15.1C76.2,70.8,66,56.9,57.9,63.5z"/>
		</g>
	</mask>
	<g class="st2">
		<g>
			
				<image style="overflow:visible;" width="110" height="108" xlink:href="58803265.png"  transform="matrix(1 0 0 1 15.2526 4.6211)">
			</image>
		</g>
	</g>
</g>
<g>
</g>
<g>
</g>
<g>
</g>
<g>
</g>
<g>
</g>
<g>
</g>
<g>
</g>
<g>
</g>
<g>
</g>
<g>
</g>
<g>
</g>
<g>
</g>
<g>
</g>
<g>
</g>
<g>
</g>
</svg>
